<?xml version="1.0" encoding="utf-8"?>
<!-- Generator: Adobe Illustrator 25.2.3, SVG Export Plug-In . SVG Version: 6.00 Build 0)  -->
<svg version="1.1" id="Layer_1" xmlns="http://www.w3.org/2000/svg" xmlns:xlink="http://www.w3.org/1999/xlink" x="0px" y="0px"
	 viewBox="0 0 458 364" style="enable-background:new 0 0 458 364;" xml:space="preserve">
<style type="text/css">
	.st0{fill:#FFFFFF;}
	.st1{fill:none;}
	.st2{fill:none;stroke:#DDDDDD;stroke-miterlimit:10;}
	.st3{display:none;fill:none;stroke:#DDDDDD;stroke-miterlimit:10;}
	.st4{fill:none;stroke:#888888;stroke-miterlimit:10;}
	.st5{font-family:'Helvetica';}
	.st6{font-size:10px;}
	.st7{font-family:'Helvetica-Bold';}
	.st8{font-size:11px;}
	.st9{display:none;}
	.st10{fill:#4C78A8;}
	.st11{font-size:15.4698px;}
</style>
<path class="st0" d="M223,96c0,0.5,0,1.1,0.1,1.6c1-0.1,2-0.2,3-0.4C225,96.9,224,96.5,223,96z"/>
<path class="st0" d="M207.4,88.1c-0.5-0.2-0.9-0.4-1.3-0.7c0,0.9,0,1.7-0.1,2.5c0.5,0.2,1,0.4,1.5,0.8
	C207.5,89.9,207.4,89,207.4,88.1z"/>
<path class="st0" d="M160.9,53.1c0.9,1.2,1.8,2.4,2.7,3.6c3.6-0.4,7.2-0.7,10.7-0.9C169.9,54.9,165.4,54.1,160.9,53.1z"/>
<path class="st0" d="M205.3,74.9c0.9,0.6,1.7,1.1,2.6,1.6c0-0.7,0.1-1.3,0.1-2c-0.3-2.4-0.6-4.7-1-7.1c-0.8,0-1.5,0.1-2.3,0.1
	C204.8,69.9,205,72.4,205.3,74.9z"/>
<path class="st0" d="M395,56.9c0.1-0.3,0-1-0.1-1.7c-3.5,1.8-7.4,3.5-11.5,4.8c0.3,0.8,0.5,1.7,0.8,2.5c3.2-0.7,7.2-1.7,9.5-3.7
	C394.5,58.1,394.8,57.6,395,56.9z"/>
<path class="st0" d="M281.9,25.8c-10.3-1-20.8-1.7-31.1-1.1c11.1,0.5,22.2,1.2,33.3,1.4C283.3,26,282.6,25.9,281.9,25.8z"/>
<path class="st0" d="M290.3,44.8c-1.1,0.7-2.1,1.4-3.2,2.2c2.2,0,4.4-0.4,6.7-0.8C292.7,45.7,291.5,45.2,290.3,44.8z"/>
<path class="st0" d="M190,93.9c0.8,0.3,1.5,0.5,2.3,0.7c0.8,0,1.6,0.1,2.4,0.2c0.1-0.2,0.1-0.4,0.2-0.6c1.3-3.8,1.5-7.9,1.3-12
	c-5.6-3.2-11.1-6.8-16.3-10.8c-0.1,1.6-0.8,3.2-2.4,3.9c-0.2,0.1-0.5,0.2-0.7,0.3c1.3,1.8,2.5,3.7,3.8,5.5
	C183.3,85.1,186.3,90,190,93.9z"/>
<path class="st0" d="M391.8,82.3c-0.1,0.3-0.2,0.6-0.3,0.9c0.1,0,0.2-0.1,0.2-0.1c0.2-0.2,0.5-0.4,0.7-0.6c0.6-0.5,1.3-0.8,1.9-1
	c1-0.6,1.9-1.1,2.9-1.7c-1.8,0.6-3.5,1.2-5.3,1.9C392,81.9,391.9,82.1,391.8,82.3z"/>
<path class="st0" d="M262.4,111.1c2.7,0.3,5.5,0.4,8.3,0.3c0.4-1.2,1.2-2.2,2.4-2.9c-0.9-0.2-1.7-0.4-2.6-0.7
	C267.8,109.1,265.1,110.2,262.4,111.1z"/>
<path class="st0" d="M226.5,107.4c-0.6,0.1-1.2,0.2-1.8,0.2c-0.5,2.5-1.1,5-1.8,7.5c2-0.1,3.9-0.4,5.8-1
	C226.4,112.6,225.4,109.5,226.5,107.4z"/>
<path class="st0" d="M141.5,48.1c0,0,0.1,0,0.1,0.1c1,0.3,2,0.5,3,0.9c-0.5-0.6-1.1-1.3-1.6-1.9c-0.6-0.3-1.1-0.6-1.7-1
	C141.4,46.8,141.4,47.4,141.5,48.1z"/>
<path class="st0" d="M166.2,44.3c6.5,1.4,13.1,2.5,19.5,4.3c2.6-4.7,6.8-9.5,10.6-13.6c-11.1-0.9-22.2-2-33.4-2.4
	c-6.3,1-12.7,1.4-19.3,0.5c1.9,1.9,3.8,3.8,5.6,5.8C154.5,41.6,160.4,43.1,166.2,44.3z"/>
<path class="st0" d="M131.8,40.9c0.1-0.9,0.2-1.9,0.3-3c-1.2-1.6-2.4-3.4-3.4-5.4c-0.1-0.2-0.2-0.5-0.3-0.7
	c-3.7-1.2-8.9-0.5-12.2-0.2c-2.4,0.2-4.8,0.5-7.2,0.8c-0.1,0-0.3,0.1-0.4,0.1c4.7,1.7,9.4,3.5,14,5.5c3.1,1.4,6.1,2.8,9,4.4
	C131.7,41.9,131.8,41.4,131.8,40.9z"/>
<path class="st0" d="M200.5,54.7c1,0.6,1.6,1.5,2,2.6c0.9,0,1.7,0,2.6,0c-0.9-4.6-2-9.1-3-13.6c-0.3,0.4-0.7,0.7-1,1.1
	c-1.9,2.1-4.2,4.5-5.9,7.1C197,52.7,198.8,53.6,200.5,54.7z"/>
<path pointer-events="none" class="st1" d="M53.5,327.5L53.5,327.5L53.5,327.5L53.5,327.5z"/>
<line class="st2" x1="53.5" y1="27.5" x2="53.5" y2="327.5"/>
<path class="st2" d="M133.5,62.6C134,82,133,100,134,119c0,69-1,139-0.5,208.5"/>
<path pointer-events="none" class="st3" d="M53.5,327.5"/>
<path pointer-events="none" class="st1" d="M53.5,27.5L53.5,27.5L53.5,27.5L53.5,27.5z"/>
<line class="st2" x1="53.5" y1="327.5" x2="453.5" y2="327.5"/>
<line class="st2" x1="53.5" y1="290.5" x2="453.5" y2="290.5"/>
<line class="st2" x1="53.5" y1="252.5" x2="453.5" y2="252.5"/>
<line class="st2" x1="53.5" y1="215.5" x2="453.5" y2="215.5"/>
<line class="st2" x1="53.5" y1="177.5" x2="453.5" y2="177.5"/>
<path class="st2" d="M53.5,140.5c50.5-0.5,101.5-0.5,152,0"/>
<path class="st2" d="M425,103.3c9.5,0,19-0.2,28.5-0.8"/>
<path class="st2" d="M53.5,102.5c40.5-0.5,79.5-0.5,119.7,0"/>
<path class="st2" d="M53.5,65.5c27.8-0.2,55.6-0.3,83.4-0.4"/>
<path pointer-events="none" class="st3" d="M53.5,27.5"/>
<path pointer-events="none" class="st1" d="M53.5,327.5L53.5,327.5L53.5,327.5L53.5,327.5z"/>
<line class="st4" x1="53.5" y1="327.5" x2="53.5" y2="332.5"/>
<line class="st4" x1="133.5" y1="327.5" x2="133.5" y2="332.5"/>
<line class="st4" x1="213.5" y1="327.5" x2="213.5" y2="332.5"/>
<line class="st4" x1="293.5" y1="327.5" x2="293.5" y2="332.5"/>
<line class="st4" x1="373.5" y1="327.5" x2="373.5" y2="332.5"/>
<text transform="matrix(1 0 0 1 53.5456 342.5)" class="st5 st6">2015</text>
<text transform="matrix(1 0 0 1 122.3788 342.5)" class="st5 st6">2016</text>
<text transform="matrix(1 0 0 1 202.554 342.5)" class="st5 st6">2017</text>
<text transform="matrix(1 0 0 1 282.5102 342.5)" class="st5 st6">2018</text>
<text transform="matrix(1 0 0 1 362.4664 342.5)" class="st5 st6">2019</text>
<line class="st4" x1="53.5" y1="327.5" x2="453.5" y2="327.5"/>
<text transform="matrix(1 0 0 1 238.2192 357.5)" class="st7 st8">YEAR</text>
<path pointer-events="none" class="st9" d="M53.5,327.5"/>
<path pointer-events="none" class="st1" d="M53.5,27.5L53.5,27.5L53.5,27.5L53.5,27.5z"/>
<line class="st4" x1="53.5" y1="327.5" x2="48.5" y2="327.5"/>
<line class="st4" x1="53.5" y1="290.5" x2="48.5" y2="290.5"/>
<line class="st4" x1="53.5" y1="252.5" x2="48.5" y2="252.5"/>
<line class="st4" x1="53.5" y1="215.5" x2="48.5" y2="215.5"/>
<line class="st4" x1="53.5" y1="177.5" x2="48.5" y2="177.5"/>
<line class="st4" x1="53.5" y1="140.5" x2="48.5" y2="140.5"/>
<line class="st4" x1="53.5" y1="102.5" x2="48.5" y2="102.5"/>
<line class="st4" x1="53.5" y1="65.5" x2="48.5" y2="65.5"/>
<line class="st4" x1="53.5" y1="27.5" x2="48.5" y2="27.5"/>
<text transform="matrix(1 0 0 1 40.9385 330.5)" class="st5 st6">0</text>
<text transform="matrix(1 0 0 1 21.4756 293)" class="st5 st6">1,000</text>
<text transform="matrix(1 0 0 1 21.4756 255.5)" class="st5 st6">2,000</text>
<text transform="matrix(1 0 0 1 21.4756 218)" class="st5 st6">3,000</text>
<text transform="matrix(1 0 0 1 21.4756 180.5)" class="st5 st6">4,000</text>
<text transform="matrix(1 0 0 1 21.4756 143)" class="st5 st6">5,000</text>
<text transform="matrix(1 0 0 1 21.4756 105.5)" class="st5 st6">6,000</text>
<text transform="matrix(1 0 0 1 21.4756 68)" class="st5 st6">7,000</text>
<text transform="matrix(1 0 0 1 21.4756 30.5)" class="st5 st6">8,000</text>
<line class="st4" x1="53.5" y1="327.5" x2="53.5" y2="27.5"/>
<text transform="matrix(6.123234e-17 -1 1 6.123234e-17 15.4756 227.3252)" class="st7 st8">MT Cane deliveries</text>
<path pointer-events="none" class="st9" d="M53.5,27.5"/>
<path class="st10" d="M53,58.3l80,0.5l80.2,90l80-19.2l80,24.6l80-85.8V327h-80h-80h-80H133H53V58.3z"/>
<path pointer-events="none" class="st1" d="M253,5L253,5L253,5L253,5z"/>
<text transform="matrix(0.8455 0 0 1 130.522 29.3213)" class="st7 st11">Cane import in Kenya over the years</text>
<path pointer-events="none" class="st9" d="M253,5"/>
<path class="st9" d="M53,27"/>
<line class="st4" x1="452.5" y1="328" x2="452.5" y2="333"/>
<text transform="matrix(1 0 0 1 434.8373 342.789)" class="st5 st6">2020</text>
</svg>
